<?xml version="1.0" encoding="UTF-8"?>
<svg version="1.1" xmlns="http://www.w3.org/2000/svg" width="723" height="508">
<path d="M0 0 C238.59 0 477.18 0 723 0 C723 167.64 723 335.28 723 508 C484.41 508 245.82 508 0 508 C0 340.36 0 172.72 0 0 Z " fill="#000000" transform="translate(0,0)"/>
<path d="M0 0 C1.65 0 3.3 0 5 0 C10.30827755 9.87786275 12.49722117 18.9928042 14 30 C13.34 30 12.68 30 12 30 C12 29.34 12 28.68 12 28 C11.34 28 10.68 28 10 28 C10 32.62 10 37.24 10 42 C13.24132741 35.23761098 13.24132741 35.23761098 15 28 C15.33 28 15.66 28 16 28 C16.495 31.465 16.495 31.465 17 35 C17.33 33.35 17.66 31.7 18 30 C23.8607497 29.47904447 28.11434514 30.93984832 33.546875 33.125 C36.03685458 34.16797816 36.03685458 34.16797816 39 34 C39 34.66 39 35.32 39 36 C41.64 36 44.28 36 47 36 C47.33 36.99 47.66 37.98 48 39 C48.68707031 39.13277344 49.37414062 39.26554687 50.08203125 39.40234375 C50.98308594 39.57894531 51.88414062 39.75554687 52.8125 39.9375 C53.70582031 40.11152344 54.59914063 40.28554687 55.51953125 40.46484375 C58 41 58 41 61 42 C61.3125 44.6875 61.3125 44.6875 61 48 C58.875 50.4375 58.875 50.4375 56 53 C55.02698973 54.13339658 54.0692494 55.28003299 53.125 56.4375 C50.51412092 59.54214636 47.67657073 62.10617302 44.515625 64.640625 C42.74087049 66.1188998 42.74087049 66.1188998 41 69 C41.21546654 71.72687532 41.21546654 71.72687532 42 75 C42.33460126 76.70808545 42.66784919 78.41643636 43 80.125 C43.83727709 84.32446792 44.7922085 88.36508154 46.125 92.4375 C46.97392448 95.89383539 47.01386367 97.65424988 46 101 C46.66 101.33 47.32 101.66 48 102 C48 103.98 48 105.96 48 108 C44.04 108 40.08 108 36 108 C39.96 108.33 43.92 108.66 48 109 C48 109.66 48 110.32 48 111 C44.60352587 110.88964039 41.20811211 110.75912556 37.8125 110.625 C36.85279297 110.5940625 35.89308594 110.563125 34.90429688 110.53125 C33.97294922 110.49257813 33.04160156 110.45390625 32.08203125 110.4140625 C31.22843018 110.3826416 30.3748291 110.3512207 29.49536133 110.31884766 C26.7351126 109.96615371 24.56418857 109.05376177 22 108 C18.79129767 107.83242243 18.79129767 107.83242243 16 108 C16 108.99 16 109.98 16 111 C15.01 111 14.02 111 13 111 C12.855625 111.639375 12.71125 112.27875 12.5625 112.9375 C12 115 12 115 11 116 C9.33382885 116.04063832 7.66611905 116.042721 6 116 C6 116.66 6 117.32 6 118 C2.52867905 116.59070303 1.11906726 115.09394917 -0.75 111.875 C-1.17796875 111.15054688 -1.6059375 110.42609375 -2.046875 109.6796875 C-2.36140625 109.12539063 -2.6759375 108.57109375 -3 108 C-1.62373901 112.01409454 0.34304697 114.72309126 3 118 C3 118.66 3 119.32 3 120 C1.515 119.505 1.515 119.505 0 119 C0 120.65 0 122.3 0 124 C-0.66 124 -1.32 124 -2 124 C-2 124.99 -2 125.98 -2 127 C-2.99 127 -3.98 127 -5 127 C-5 127.99 -5 128.98 -5 130 C-8 132 -8 132 -11 132 C-11 132.99 -11 133.98 -11 135 C-11.99 135 -12.98 135 -14 135 C-14.33 136.65 -14.66 138.3 -15 140 C-16.65 140 -18.3 140 -20 140 C-25.56417174 129.66653819 -28.58272066 119.76727736 -29 108 C-29.99 108.33 -30.98 108.66 -32 109 C-34.6875 108.0625 -34.6875 108.0625 -37 107 C-37 106.34 -37 105.68 -37 105 C-37.99 105.061875 -38.98 105.12375 -40 105.1875 C-44.45378953 105.1875 -47.94441677 103.6994825 -52 102 C-53.41485382 101.47426197 -54.83149964 100.95331831 -56.25 100.4375 C-58.36383393 99.65153435 -60.30184471 98.84499866 -62.3125 97.8125 C-64.13834825 96.78309219 -64.13834825 96.78309219 -67 97 C-67 96.34 -67 95.68 -67 95 C-67.99 95 -68.98 95 -70 95 C-69.65760944 89.52175099 -66.309447 86.08861292 -63 82 C-62.35804687 81.15501953 -62.35804687 81.15501953 -61.703125 80.29296875 C-58.83958521 76.62057195 -55.9305433 74.37660757 -52 72 C-52.33 71.01 -52.66 70.02 -53 69 C-52.67 68.34 -52.34 67.68 -52 67 C-52.66 67 -53.32 67 -54 67 C-54.335939 65.5422647 -54.66866624 64.08378894 -55 62.625 C-55.185625 61.81289062 -55.37125 61.00078125 -55.5625 60.1640625 C-56 58 -56 58 -56 56 C-56.53062234 53.23725558 -57.0920218 50.48182891 -57.66015625 47.7265625 C-57.98826836 45.0941228 -57.84191777 43.48454056 -57 41 C-57.66 40.67 -58.32 40.34 -59 40 C-60.86360591 34.09858129 -61.22742222 28.14040005 -61 22 C-56.05 22 -51.1 22 -46 22 C-46 22.66 -46 23.32 -46 24 C-44.845 23.9175 -43.69 23.835 -42.5 23.75 C-38.17025006 23.71168363 -35.51715822 25.10030034 -31.8125 27.19140625 C-29.30996236 28.30784007 -27.61458194 27.56531501 -25 27 C-22.1875 28.9375 -22.1875 28.9375 -20 31 C-20.825 30.05125 -21.65 29.1025 -22.5 28.125 C-25 25.25 -25 25.25 -25 23 C-24.34 23 -23.68 23 -23 23 C-23 22.01 -23 21.02 -23 20 C-20.35261084 18.5393715 -19.10551666 18 -16 18 C-16 17.34 -16 16.68 -16 16 C-15.01 16 -14.02 16 -13 16 C-13 15.01 -13 14.02 -13 13 C-12.34 13 -11.68 13 -11 13 C-11 12.34 -11 11.68 -11 11 C-9.68 11 -8.36 11 -7 11 C-7 10.01 -7 9.02 -7 8 C-6.01 8 -5.02 8 -4 8 C-4 7.01 -4 6.02 -4 5 C-3.34 5 -2.68 5 -2 5 C-1.34 3.35 -0.68 1.7 0 0 Z " fill="#010916" transform="translate(168,172)"/>
<path d="M0 0 C0.66 0 1.32 0 2 0 C3.13277268 2.18376766 4.25622789 4.37157128 5.375 6.5625 C5.69210938 7.17158203 6.00921875 7.78066406 6.3359375 8.40820312 C9.19526281 14.03749984 11.38943042 19.57439806 11 26 C10.01 25.01 10.01 25.01 9 24 C8.01 25.98 7.02 27.96 6 30 C5.01 29.01 5.01 29.01 4 28 C3.67 28.66 3.34 29.32 3 30 C2.34 30 1.68 30 1 30 C1.495 36.93 1.495 36.93 2 44 C3.485 44.495 3.485 44.495 5 45 C5 45.66 5 46.32 5 47 C5.763125 46.690625 6.52625 46.38125 7.3125 46.0625 C9.18789677 45.32106407 11.08684652 44.63771783 13 44 C13.33 43.01 13.66 42.02 14 41 C15 40 16 39 17 38 C18.19599068 35.96767758 18.19599068 35.96767758 19.1875 33.8125 C19.70376953 32.73935547 19.70376953 32.73935547 20.23046875 31.64453125 C20.48441406 31.10183594 20.73835938 30.55914062 21 30 C21.33 30 21.66 30 22 30 C22.20043956 35.19138452 21.54719218 39.4494464 20.125 44.4375 C19.75739646 45.74988354 19.39020543 47.06238269 19.0234375 48.375 C18.68570313 49.57125 18.34796875 50.7675 18 52 C17.31180251 54.66203863 16.65403804 57.32934467 16 60 C23.65074958 61.55123466 31.21191437 62.48351265 39 63 C39 63.66 39 64.32 39 65 C33.04688749 70.77326017 25.86971771 70.88744146 18 71 C16.48599609 71.02320313 16.48599609 71.02320313 14.94140625 71.046875 C12.62592052 71.06001251 10.31493087 71.0470302 8 71 C8.59733549 73.04367572 9.20319657 75.08486043 9.8125 77.125 C10.14894531 78.26195312 10.48539062 79.39890625 10.83203125 80.5703125 C11.9163579 84.04266366 11.9163579 84.04266366 13.69921875 87.2421875 C15 90 15 90 14 93 C6.75901412 87.7713973 0.94488303 82.48796572 -4 75 C-4 74.34 -4 73.68 -4 73 C-6.475 73.495 -6.475 73.495 -9 74 C-9 74.66 -9 75.32 -9 76 C-9.66 76 -10.32 76 -11 76 C-11.495 77.485 -11.495 77.485 -12 79 C-14.97 79.495 -14.97 79.495 -18 80 C-18.47258223 74.44715885 -17.37544066 70.98177798 -14.875 66.015625 C-13.80089699 63.90757783 -13.80089699 63.90757783 -14 61 C-20.60342623 59.98408827 -27.32705461 59.39430188 -34 60 C-34.66 60.66 -35.32 61.32 -36 62 C-35.34 62.33 -34.68 62.66 -34 63 C-34 64.32 -34 65.64 -34 67 C-33.505 67.99 -33.505 67.99 -33 69 C-33.99 69.99 -34.98 70.98 -36 72 C-34.68 72.66 -33.36 73.32 -32 74 C-32 73.34 -32 72.68 -32 72 C-29.525 71.505 -29.525 71.505 -27 71 C-27.42152344 71.48210937 -27.84304687 71.96421875 -28.27734375 72.4609375 C-28.82519531 73.09257812 -29.37304688 73.72421875 -29.9375 74.375 C-30.48277344 75.00148438 -31.02804688 75.62796875 -31.58984375 76.2734375 C-33.06958624 77.95632334 -33.06958624 77.95632334 -34 80 C-32.515 79.505 -32.515 79.505 -31 79 C-33.66666667 84.33333333 -36.33333333 89.66666667 -39 95 C-39.66 94.01 -40.32 93.02 -41 92 C-42.485 92.495 -42.485 92.495 -44 93 C-43.44010697 89.00987629 -42.24330232 86.4744948 -39.9375 83.1875 C-39.38964844 82.39730469 -38.84179688 81.60710937 -38.27734375 80.79296875 C-37.85582031 80.20128906 -37.43429688 79.60960937 -37 79 C-37.33 79 -37.66 79 -38 79 C-39.20827983 80.55181037 -40.36654529 82.14272405 -41.5 83.75 C-42.1290625 84.63171875 -42.758125 85.5134375 -43.40625 86.421875 C-44.8270127 88.7201676 -45.55699016 90.3665526 -46 93 C-47.46015291 92.71758359 -48.91809793 92.42373386 -50.375 92.125 C-51.18710938 91.96257812 -51.99921875 91.80015625 -52.8359375 91.6328125 C-55 91 -55 91 -57 89 C-57.99 89 -58.98 89 -60 89 C-60 88.34 -60 87.68 -60 87 C-60.99 87 -61.98 87 -63 87 C-62.65760944 81.52175099 -59.309447 78.08861292 -56 74 C-55.35804687 73.15501953 -55.35804687 73.15501953 -54.703125 72.29296875 C-51.83958521 68.62057195 -48.9305433 66.37660757 -45 64 C-45.33 63.01 -45.66 62.02 -46 61 C-45.67 60.34 -45.34 59.68 -45 59 C-45.66 59 -46.32 59 -47 59 C-47.335939 57.5422647 -47.66866624 56.08378894 -48 54.625 C-48.185625 53.81289062 -48.37125 53.00078125 -48.5625 52.1640625 C-49 50 -49 50 -49 48 C-49.53062234 45.23725558 -50.0920218 42.48182891 -50.66015625 39.7265625 C-50.98826836 37.0941228 -50.84191777 35.48454056 -50 33 C-50.66 32.67 -51.32 32.34 -52 32 C-53.86360591 26.09858129 -54.22742222 20.14040005 -54 14 C-49.05 14 -44.1 14 -39 14 C-39 14.66 -39 15.32 -39 16 C-37.845 15.9175 -36.69 15.835 -35.5 15.75 C-31.17025006 15.71168363 -28.51715822 17.10030034 -24.8125 19.19140625 C-22.30996236 20.30784007 -20.61458194 19.56531501 -18 19 C-15.1875 20.9375 -15.1875 20.9375 -13 23 C-13.825 22.05125 -14.65 21.1025 -15.5 20.125 C-18 17.25 -18 17.25 -18 15 C-17.34 15 -16.68 15 -16 15 C-16 14.01 -16 13.02 -16 12 C-13.35261084 10.5393715 -12.10551666 10 -9 10 C-9 9.34 -9 8.68 -9 8 C-8.01 8 -7.02 8 -6 8 C-6 7.01 -6 6.02 -6 5 C-5.34 5 -4.68 5 -4 5 C-4 4.34 -4 3.68 -4 3 C-2.68 3 -1.36 3 0 3 C0 2.01 0 1.02 0 0 Z " fill="#020D1E" transform="translate(161,180)"/>
<path d="M0 0 C1.66869141 -0.03867188 1.66869141 -0.03867188 3.37109375 -0.078125 C7.05710365 0.30085276 8.70221875 0.9006538 11.5625 3.25 C14.98102455 8.29808439 16.15830177 12.05435325 16.05859375 18.1953125 C16.06004898 18.92821503 16.06150421 19.66111755 16.06300354 20.41622925 C16.0613543 21.95412197 16.04990306 23.4920329 16.02905273 25.02978516 C15.99998711 27.37604046 16.00848447 29.72004645 16.02148438 32.06640625 C16.01524884 33.56771924 16.00685934 35.06902516 15.99609375 36.5703125 C15.99902939 37.26625519 16.00196503 37.96219788 16.00498962 38.67922974 C15.92088872 43.04025741 15.19631035 45.76529053 12.5625 49.25 C7.89509786 53.34820676 5.43559652 54.41593753 -0.75 54.5 C-1.88050781 54.52578125 -3.01101563 54.5515625 -4.17578125 54.578125 C-7.8722729 54.20626237 -9.54348727 53.55745403 -12.4375 51.25 C-16.19197846 46.61070815 -17.05357913 42.89501167 -17.0390625 37.0703125 C-17.04763275 36.29871796 -17.056203 35.52712341 -17.06503296 34.73214722 C-17.07646974 33.10679023 -17.07755674 31.48133092 -17.06884766 29.85595703 C-17.06253286 27.38784446 -17.10945717 24.92455057 -17.16015625 22.45703125 C-17.2750657 8.25544808 -17.2750657 8.25544808 -12.11865234 2.46044922 C-8.47234009 -0.16493796 -4.36082416 0.06049698 0 0 Z " fill="#E4E4E4" transform="translate(349.4375,211.75)"/>
<path d="M0 0 C0.83466797 -0.03738281 1.66933594 -0.07476562 2.52929688 -0.11328125 C8.72840427 -0.20025236 13.30090395 1.10084859 17.9375 5.375 C20.42315353 8.90780333 20.24381965 12.64295419 20.23828125 16.80859375 C20.24256638 17.52354507 20.2468515 18.2384964 20.25126648 18.97511292 C20.25699654 20.48380476 20.2575198 21.99252423 20.25317383 23.5012207 C20.25001521 25.80142661 20.27348258 28.10034371 20.29882812 30.40039062 C20.30110151 31.86979005 20.30180443 33.33919292 20.30078125 34.80859375 C20.309991 35.49207382 20.31920074 36.17555389 20.32868958 36.87974548 C20.28685234 41.22814645 19.56079548 43.90217451 16.9375 47.375 C13.0670158 50.77347393 10.7523081 52.50038442 5.62109375 52.5078125 C4.35168945 52.50974609 4.35168945 52.50974609 3.05664062 52.51171875 C2.17169922 52.50785156 1.28675781 52.50398438 0.375 52.5 C-0.51380859 52.50386719 -1.40261719 52.50773437 -2.31835938 52.51171875 C-3.16333984 52.51042969 -4.00832031 52.50914062 -4.87890625 52.5078125 C-6.04595093 52.50612061 -6.04595093 52.50612061 -7.23657227 52.50439453 C-9.0625 52.375 -9.0625 52.375 -10.0625 51.375 C-10.16096967 49.81500952 -10.19048618 48.25059456 -10.19189453 46.6875 C-10.19504669 45.68976563 -10.19819885 44.69203125 -10.20144653 43.6640625 C-10.1994223 42.57867187 -10.19739807 41.49328125 -10.1953125 40.375 C-10.19626923 39.26898438 -10.19722595 38.16296875 -10.19821167 37.0234375 C-10.19889367 34.67968692 -10.19703804 32.33593447 -10.19287109 29.9921875 C-10.18752314 26.39058212 -10.19281547 22.78910147 -10.19921875 19.1875 C-10.19855797 16.91666639 -10.19727682 14.64583286 -10.1953125 12.375 C-10.19733673 11.28960937 -10.19936096 10.20421875 -10.20144653 9.0859375 C-10.19829437 8.08820313 -10.19514221 7.09046875 -10.19189453 6.0625 C-10.19109894 5.17949219 -10.19030334 4.29648438 -10.18948364 3.38671875 C-9.8734919 -1.61933171 -3.84617453 0.06328784 0 0 Z " fill="#E7E7E7" transform="translate(404.0625,212.625)"/>
<path d="M0 0 C3.77018995 0.58399298 5.75901388 2.22638813 8.5625 4.75 C9.32691406 5.42546875 10.09132812 6.1009375 10.87890625 6.796875 C13.43907803 9.45605895 16 12.16392927 16 16 C16.99 16.33 17.98 16.66 19 17 C19 17.66 19 18.32 19 19 C19.763125 18.690625 20.52625 18.38125 21.3125 18.0625 C23.18789677 17.32106407 25.08684652 16.63771783 27 16 C27.33 15.01 27.66 14.02 28 13 C29 12 30 11 31 10 C32.19599068 7.96767758 32.19599068 7.96767758 33.1875 5.8125 C33.53167969 5.09707031 33.87585938 4.38164062 34.23046875 3.64453125 C34.61138672 2.83048828 34.61138672 2.83048828 35 2 C35.33 2 35.66 2 36 2 C36.20043956 7.19138452 35.54719218 11.4494464 34.125 16.4375 C33.75739646 17.74988354 33.39020543 19.06238269 33.0234375 20.375 C32.68570313 21.57125 32.34796875 22.7675 32 24 C31.31180251 26.66203863 30.65403804 29.32934467 30 32 C37.65074958 33.55123466 45.21191437 34.48351265 53 35 C53 35.66 53 36.32 53 37 C47.04688749 42.77326017 39.86971771 42.88744146 32 43 C30.48599609 43.02320313 30.48599609 43.02320313 28.94140625 43.046875 C26.62592052 43.06001251 24.31493087 43.0470302 22 43 C22.59733549 45.04367572 23.20319657 47.08486043 23.8125 49.125 C24.14894531 50.26195312 24.48539063 51.39890625 24.83203125 52.5703125 C25.9163579 56.04266366 25.9163579 56.04266366 27.69921875 59.2421875 C29 62 29 62 28 65 C20.75901412 59.7713973 14.94488303 54.48796572 10 47 C10 46.34 10 45.68 10 45 C7.525 45.495 7.525 45.495 5 46 C5 46.66 5 47.32 5 48 C4.34 48 3.68 48 3 48 C2.67 48.99 2.34 49.98 2 51 C-0.97 51.495 -0.97 51.495 -4 52 C-4.47258223 46.44715885 -3.37544066 42.98177798 -0.875 38.015625 C0.19910301 35.90757783 0.19910301 35.90757783 0 33 C-1.485 32.505 -1.485 32.505 -3 32 C-3 31.34 -3 30.68 -3 30 C-4.71509766 29.92652344 -4.71509766 29.92652344 -6.46484375 29.8515625 C-7.95575473 29.77654811 -9.44663892 29.70099972 -10.9375 29.625 C-11.69224609 29.5940625 -12.44699219 29.563125 -13.22460938 29.53125 C-15.15507395 29.4273685 -17.07942081 29.22104386 -19 29 C-19.33 28.34 -19.66 27.68 -20 27 C-16.535 26.505 -16.535 26.505 -13 26 C-13 25.34 -13 24.68 -13 24 C-10.79344925 23.49219106 -8.58466395 22.99408635 -6.375 22.5 C-5.14523438 22.2215625 -3.91546875 21.943125 -2.6484375 21.65625 C0.67152228 21.05908379 3.63908451 20.87590466 7 21 C6.40705795 18.58007408 5.80120861 16.16466442 5.1875 13.75 C5.02185547 13.06808594 4.85621094 12.38617188 4.68554688 11.68359375 C3.68867455 7.8089579 2.55042387 5.06927801 0 2 C0 1.34 0 0.68 0 0 Z " fill="#0B408B" transform="translate(147,208)"/>
<path d="M0 0 C5.50243464 3.56914679 6.79814441 10.68158692 8.125 16.75 C8.8228569 20.46055619 9.18677882 24.10926626 9.4375 27.875 C9.80820137 33.21584559 10.97013667 38.0645819 12.3671875 43.21875 C13.21232235 46.93316983 13.21869496 50.20928732 13 54 C8.25 55.125 8.25 55.125 6 54 C5.3671875 51.671875 5.3671875 51.671875 4.875 48.75 C4.70742188 47.79609375 4.53984375 46.8421875 4.3671875 45.859375 C4 43 4 43 4 38 C-1.28 38 -6.56 38 -12 38 C-12 40.31 -12 42.62 -12 45 C-12.4375 47.65234375 -12.4375 47.65234375 -13 49.9375 C-13.185625 50.70964844 -13.37125 51.48179687 -13.5625 52.27734375 C-13.706875 52.84582031 -13.85125 53.41429687 -14 54 C-15.98 54 -17.96 54 -20 54 C-20.16894934 43.95690051 -19.39222326 35.11177037 -16.8203125 25.3984375 C-15.7130807 20.81133433 -14.91221066 16.17994385 -14.17822266 11.51928711 C-13.47763504 7.42877589 -12.46107986 4.35887174 -10 1 C-6.79303794 -0.60348103 -3.479549 -0.47731388 0 0 Z " fill="#D7D7D7" transform="translate(531,212)"/>
<path d="M0 0 C0.9384375 0.02191406 1.876875 0.04382813 2.84375 0.06640625 C3.7821875 0.06511719 4.720625 0.06382812 5.6875 0.0625 C9.16842867 0.80475685 10.18642168 1.80390061 12.34375 4.62890625 C12.7419795 7.33085583 12.90575004 9.61805197 12.875 12.31640625 C12.8788269 13.05592529 12.88265381 13.79544434 12.88659668 14.55737305 C12.88931271 16.11736415 12.88197292 17.67740103 12.86523438 19.23730469 C12.84381673 21.62147811 12.86504263 24.00263874 12.890625 26.38671875 C12.88798166 27.90495455 12.88285656 29.42318848 12.875 30.94140625 C12.88309692 31.65192139 12.89119385 32.36243652 12.89953613 33.09448242 C12.8350875 36.50634764 12.57132203 38.33063455 10.4765625 41.07617188 C7.77826605 43.040591 6.15888101 43.16533626 2.84375 43.12890625 C1.9053125 43.13921875 0.966875 43.14953125 0 43.16015625 C-3.49034484 42.46208728 -4.49368047 41.4449405 -6.65625 38.62890625 C-7.05484861 36.00736829 -7.2184171 33.81282596 -7.1875 31.1953125 C-7.1913269 30.48036118 -7.19515381 29.76540985 -7.19909668 29.02879333 C-7.20181259 27.52007638 -7.19447364 26.01131208 -7.17773438 24.50268555 C-7.15634741 22.2018853 -7.17752608 19.90421812 -7.203125 17.60351562 C-7.20048105 16.13410773 -7.19535466 14.66470178 -7.1875 13.1953125 C-7.19559692 12.51183243 -7.20369385 11.82835236 -7.21203613 11.12416077 C-7.10724018 5.74336548 -5.61273753 1.32889815 0 0 Z " fill="#090909" transform="translate(345.65625,217.37109375)"/>
<path d="M0 0 C13 0 13 0 17 3 C17.48583984 6.03100586 17.48583984 6.03100586 17.4609375 9.71484375 C17.45956284 10.69306847 17.45956284 10.69306847 17.4581604 11.6910553 C17.4521257 13.06876919 17.43638305 14.44647004 17.41162109 15.82397461 C17.37518601 17.92676453 17.37060128 20.02778719 17.37109375 22.13085938 C17.28640788 33.67375028 17.28640788 33.67375028 15 37 C12 39 12 39 0 39 C0 26.13 0 13.26 0 0 Z " fill="#070707" transform="translate(401,220)"/>
<path d="M0 0 C8.25 0 16.5 0 25 0 C25.33 1.65 25.66 3.3 26 5 C25 6 25 6 23.14233398 6.11352539 C22.35157471 6.10828857 21.56081543 6.10305176 20.74609375 6.09765625 C19.89208984 6.09443359 19.03808594 6.09121094 18.15820312 6.08789062 C17.26037109 6.07951172 16.36253906 6.07113281 15.4375 6.0625 C14.53580078 6.05798828 13.63410156 6.05347656 12.70507812 6.04882812 C10.47002411 6.03700244 8.23500398 6.01906638 6 6 C6 10.62 6 15.24 6 20 C10.29 20 14.58 20 19 20 C19.33 21.65 19.66 23.3 20 25 C19 26 19 26 16.05859375 26.09765625 C12.70572917 26.06510417 9.35286458 26.03255208 6 26 C6 32.6 6 39.2 6 46 C12.1630183 45.92093225 12.1630183 45.92093225 18.32568359 45.81982422 C19.47544678 45.81233154 19.47544678 45.81233154 20.6484375 45.8046875 C21.82672119 45.78897705 21.82672119 45.78897705 23.02880859 45.77294922 C25 46 25 46 27 48 C26.625 50.125 26.625 50.125 26 52 C21.85418113 52.02886751 17.70838784 52.04675327 13.5625 52.0625 C11.78649414 52.07506836 11.78649414 52.07506836 9.97460938 52.08789062 C8.84990234 52.09111328 7.72519531 52.09433594 6.56640625 52.09765625 C5.00321655 52.10551147 5.00321655 52.10551147 3.40844727 52.11352539 C1 52 1 52 0 51 C-0.09333705 49.40389018 -0.11745372 47.80366572 -0.11352539 46.20483398 C-0.11344986 45.18385117 -0.11337433 44.16286835 -0.11329651 43.11094666 C-0.10813522 42.0005452 -0.10297394 40.89014374 -0.09765625 39.74609375 C-0.0962413 38.61551041 -0.09482635 37.48492706 -0.09336853 36.32008362 C-0.08775019 32.69252935 -0.07519458 29.06503576 -0.0625 25.4375 C-0.05748736 22.98502693 -0.05292405 20.5325529 -0.04882812 18.08007812 C-0.0386237 12.05334296 -0.01905186 6.02673978 0 0 Z " fill="#E4E4E4" transform="translate(454,213)"/>
<path d="M0 0 C2.64674151 2.38852282 4.18719708 4.02705413 5.5625 7.3125 C5.75 11.125 5.75 11.125 5.5625 14.3125 C3.9125 14.6425 2.2625 14.9725 0.5625 15.3125 C0.28986328 14.48105469 0.28986328 14.48105469 0.01171875 13.6328125 C-0.23964844 12.90835938 -0.49101563 12.18390625 -0.75 11.4375 C-0.99363281 10.71820313 -1.23726562 9.99890625 -1.48828125 9.2578125 C-2.40085547 6.97255095 -2.40085547 6.97255095 -5.4375 5.3125 C-7.3879073 4.96084183 -7.3879073 4.96084183 -9.4375 5 C-10.4584375 4.97486328 -10.4584375 4.97486328 -11.5 4.94921875 C-14.19143541 5.45386289 -14.8498145 6.05373094 -16.4375 8.3125 C-16.69909322 11.11239129 -16.78654338 13.68477929 -16.73046875 16.48046875 C-16.72622391 17.27528152 -16.72197906 18.0700943 -16.71760559 18.88899231 C-16.7008193 21.42634021 -16.66316824 23.96289238 -16.625 26.5 C-16.60995305 28.22069165 -16.59626466 29.94139576 -16.58398438 31.66210938 C-16.55091607 35.87921262 -16.49913495 40.09572142 -16.4375 44.3125 C-13.67702457 45.23265848 -11.80387731 45.50517245 -8.9375 45.5625 C-8.1640625 45.58828125 -7.390625 45.6140625 -6.59375 45.640625 C-3.88577359 45.22854163 -3.08754504 44.46104807 -1.4375 42.3125 C-0.23700593 39.21242799 -0.23700593 39.21242799 0.5625 36.3125 C2.2125 36.3125 3.8625 36.3125 5.5625 36.3125 C6.23214286 44.08035714 6.23214286 44.08035714 3.3125 47.6875 C-0.91458673 51.72244643 -3.9037131 52.67644371 -9.75 52.9375 C-11.38388672 53.04964844 -11.38388672 53.04964844 -13.05078125 53.1640625 C-17.33714515 52.08629165 -19.31439408 50.7088852 -22.05688477 47.26367188 C-24.89979137 41.18673908 -24.42404491 34.45090117 -24.29516602 27.8581543 C-24.25002416 25.25139498 -24.27446969 22.65174956 -24.30664062 20.04492188 C-24.29842118 18.37237029 -24.28618697 16.6998326 -24.26953125 15.02734375 C-24.27853958 14.25736557 -24.28754791 13.48738739 -24.29682922 12.69407654 C-24.13702436 7.39311262 -22.6434386 4.56377293 -19.1113739 0.63502502 C-14.0114693 -3.39440124 -5.46696684 -2.68378372 0 0 Z " fill="#E5E5E5" transform="translate(633.4375,213.6875)"/>
<path d="M0 0 C3.0986202 1.97682393 5.14087051 4.87158477 6.76953125 8.12890625 C6.80975516 10.46189285 6.81273372 12.79597291 6.76953125 15.12890625 C5.11953125 15.45890625 3.46953125 15.78890625 1.76953125 16.12890625 C0.44953125 12.82890625 -0.87046875 9.52890625 -2.23046875 6.12890625 C-3.81859375 6.06703125 -5.40671875 6.00515625 -7.04296875 5.94140625 C-8.38294922 5.88919922 -8.38294922 5.88919922 -9.75 5.8359375 C-12.20270389 5.94006783 -12.20270389 5.94006783 -13.85839844 7.18652344 C-15.9188895 10.10347485 -15.6786381 13.05523386 -15.6640625 16.5 C-15.66930435 17.21873795 -15.6745462 17.93747589 -15.6799469 18.67799377 C-15.68636481 20.19685577 -15.685033 21.71576748 -15.67651367 23.23461914 C-15.66801017 25.55510311 -15.69675175 27.87311911 -15.72851562 30.19335938 C-15.73012799 31.67057218 -15.72954944 33.14778933 -15.7265625 34.625 C-15.73779648 35.31677841 -15.74903046 36.00855682 -15.76060486 36.72129822 C-15.71155681 40.12346328 -15.44780818 41.8502631 -13.32885742 44.56689453 C-9.82440585 47.17556017 -7.50141885 46.61111029 -3.23046875 46.12890625 C-1.23949029 43.14243856 -0.28921949 40.53203363 0.76953125 37.12890625 C2.42567782 36.74671858 4.09410149 36.41495523 5.76953125 36.12890625 C6.76953125 37.12890625 6.76953125 37.12890625 7.14453125 40.25390625 C6.67403851 45.11566454 5.0529184 47.6177697 1.76953125 51.12890625 C-1.65329064 53.7530697 -5.02814106 53.47335934 -9.23046875 53.12890625 C-15.25852539 51.82554265 -18.75525883 50.45780003 -22.23046875 45.12890625 C-22.59778131 42.42408298 -22.74702333 40.14257416 -22.69140625 37.44921875 C-22.69048981 36.71822968 -22.68957336 35.9872406 -22.68862915 35.23410034 C-22.68260703 33.69262169 -22.66690259 32.15115398 -22.64208984 30.60986328 C-22.60568951 28.2681086 -22.60107017 25.9279451 -22.6015625 23.5859375 C-22.59172536 22.08201777 -22.58006577 20.57810862 -22.56640625 19.07421875 C-22.5641806 18.38232452 -22.56195496 17.6904303 -22.55966187 16.97756958 C-22.44372468 10.94398604 -21.69928699 5.9456025 -17.85546875 1.19140625 C-13.06655259 -2.41213462 -5.40122568 -2.10941038 0 0 Z " fill="#E5E5E5" transform="translate(296.23046875,212.87109375)"/>
<path d="M0 0 C3.32382587 4.33542505 4.12018668 6.47141274 4 12 C3.36191406 12.26554688 2.72382813 12.53109375 2.06640625 12.8046875 C1.24011719 13.15789062 0.41382813 13.51109375 -0.4375 13.875 C-1.26121094 14.22304687 -2.08492187 14.57109375 -2.93359375 14.9296875 C-5.15746715 15.8244937 -5.15746715 15.8244937 -6 18 C-5.34 18 -4.68 18 -4 18 C-4 18.99 -4 19.98 -4 21 C-2.68 21.33 -1.36 21.66 0 22 C-0.53607758 26.55665941 -2.48897302 29.23345952 -5 33 C-5.78215588 35.7282504 -5.78215588 35.7282504 -6 38 C-3.37812506 36.95125002 -2.20628639 36.35068687 -0.75 33.875 C-0.5025 33.25625 -0.255 32.6375 0 32 C4.47670898 32.86090557 6.51147718 33.39874115 9.4375 37 C11 40 11 40 11 42 C11.66 42 12.32 42 13 42 C13 41.34 13 40.68 13 40 C13.66 40 14.32 40 15 40 C14.79375 38.88625 14.5875 37.7725 14.375 36.625 C14.25125 35.42875 14.1275 34.2325 14 33 C16.93094605 30.06905395 20.12723755 30.62006169 24.0625 30.5 C30.26814724 30.23444449 35.98097913 29.64155115 42 28 C42 27.34 42 26.68 42 26 C41.05640625 26.05220703 41.05640625 26.05220703 40.09375 26.10546875 C33.96903712 26.29917202 29.52942446 25.71444473 24 23 C22.95550089 19.86650268 23.06576355 19.01031744 24 16 C24.66 16 25.32 16 26 16 C25.67 17.98 25.34 19.96 25 22 C32.65074958 23.55123466 40.21191437 24.48351265 48 25 C48 25.66 48 26.32 48 27 C42.04688749 32.77326017 34.86971771 32.88744146 27 33 C25.48599609 33.02320313 25.48599609 33.02320313 23.94140625 33.046875 C21.62592052 33.06001251 19.31493087 33.0470302 17 33 C17.59733549 35.04367572 18.20319657 37.08486043 18.8125 39.125 C19.14894531 40.26195312 19.48539063 41.39890625 19.83203125 42.5703125 C20.9163579 46.04266366 20.9163579 46.04266366 22.69921875 49.2421875 C24 52 24 52 23 55 C15.75901412 49.7713973 9.94488303 44.48796572 5 37 C5 36.34 5 35.68 5 35 C2.525 35.495 2.525 35.495 0 36 C0 36.66 0 37.32 0 38 C-0.66 38 -1.32 38 -2 38 C-2.33 38.99 -2.66 39.98 -3 41 C-5.97 41.495 -5.97 41.495 -9 42 C-9.47258223 36.44715885 -8.37544066 32.98177798 -5.875 28.015625 C-4.80089699 25.90757783 -4.80089699 25.90757783 -5 23 C-5.99 22.67 -6.98 22.34 -8 22 C-8 21.34 -8 20.68 -8 20 C-9.71509766 19.92652344 -9.71509766 19.92652344 -11.46484375 19.8515625 C-12.95575473 19.77654811 -14.44663892 19.70099972 -15.9375 19.625 C-16.69224609 19.5940625 -17.44699219 19.563125 -18.22460938 19.53125 C-20.15507395 19.4273685 -22.07942081 19.22104386 -24 19 C-24.33 18.34 -24.66 17.68 -25 17 C-21.535 16.505 -21.535 16.505 -18 16 C-18 15.34 -18 14.68 -18 14 C-15.79344925 13.49219106 -13.58466395 12.99408635 -11.375 12.5 C-10.14523438 12.2215625 -8.91546875 11.943125 -7.6484375 11.65625 C-4.32847772 11.05908379 -1.36091549 10.87590466 2 11 C1.67 9.9275 1.34 8.855 1 7.75 C0 4 0 4 0 0 Z " fill="#0E3777" transform="translate(152,218)"/>
<path d="M0 0 C1.5778125 0.03867188 1.5778125 0.03867188 3.1875 0.078125 C6.921363 0.28767854 10.55437853 0.68144285 14.25 1.25 C15.18045933 3.80144824 15.33564091 4.99006478 14.47265625 7.609375 C13.89837891 8.79273438 13.89837891 8.79273438 13.3125 10 C12.93222656 10.79921875 12.55195313 11.5984375 12.16015625 12.421875 C11.85980469 13.02515625 11.55945313 13.6284375 11.25 14.25 C10.59 14.25 9.93 14.25 9.25 14.25 C9.064375 15.343125 8.87875 16.43625 8.6875 17.5625 C7.25 21.25 7.25 21.25 3.875 23.0625 C2.67875 23.454375 1.4825 23.84625 0.25 24.25 C-3.06504814 25.44710072 -3.62968609 26.04804451 -5.5 29.1875 C-6.9389485 32.16162721 -6.9389485 32.16162721 -6.75 35.25 C-5.76 33.27 -4.77 31.29 -3.75 29.25 C-2.7173198 32.03823655 -2.70490707 33.1177274 -3.6875 36 C-4.038125 36.7425 -4.38875 37.485 -4.75 38.25 C-14.17857143 37.30714286 -14.17857143 37.30714286 -16.75 35.25 C-17.55078125 32.9921875 -17.55078125 32.9921875 -17.75 30.25 C-16.421875 27.6796875 -16.421875 27.6796875 -14.5 25.125 C-13.87609375 24.27679688 -13.2521875 23.42859375 -12.609375 22.5546875 C-11.07327034 20.65069222 -9.52565798 18.92701031 -7.75 17.25 C-7.75 20.25 -7.75 20.25 -9.5 22.375 C-12.37377074 26.04704039 -13.99221005 29.95837454 -15.75 34.25 C-14.43 33.26 -13.11 32.27 -11.75 31.25 C-11.42 32.57 -11.09 33.89 -10.75 35.25 C-10.41226563 34.49074219 -10.07453125 33.73148437 -9.7265625 32.94921875 C-9.28054687 31.95535156 -8.83453125 30.96148437 -8.375 29.9375 C-7.93414062 28.95136719 -7.49328125 27.96523438 -7.0390625 26.94921875 C-5.75 24.25 -5.75 24.25 -3.75 21.25 C-4.41 21.25 -5.07 21.25 -5.75 21.25 C-4.37845496 18.29590299 -2.76136276 15.80991624 -0.75 13.25 C-1.74 13.25 -2.73 13.25 -3.75 13.25 C-3.75 13.91 -3.75 14.57 -3.75 15.25 C-5.4 15.25 -7.05 15.25 -8.75 15.25 C-7.76 12.28 -6.77 9.31 -5.75 6.25 C-6.41 5.92 -7.07 5.59 -7.75 5.25 C-7.75 4.92 -7.75 4.59 -7.75 4.25 C-8.41 3.92 -9.07 3.59 -9.75 3.25 C-6.47872754 0.2902773 -4.36597937 -0.11310827 0 0 Z " fill="#010814" transform="translate(132.75,238.75)"/>
<path d="M0 0 C1.32 0.33 2.64 0.66 4 1 C4 3.31 4 5.62 4 8 C4.66 7.34 5.32 6.68 6 6 C9 11.75 9 11.75 9 14 C9.66 14 10.32 14 11 14 C10.484375 13.0925 9.96875 12.185 9.4375 11.25 C8 8 8 8 8.3125 5.625 C8.539375 5.08875 8.76625 4.5525 9 4 C9 4.66 9 5.32 9 6 C9.66 6 10.32 6 11 6 C11.4125 7.051875 11.825 8.10375 12.25 9.1875 C13.69220829 12.59635596 15.63565426 15.14647928 18 18 C18 18.66 18 19.32 18 20 C17.01 19.67 16.02 19.34 15 19 C15 20.65 15 22.3 15 24 C14.01 23.67 13.02 23.34 12 23 C12 23.66 12 24.32 12 25 C9 24 9 24 7.17578125 20.83984375 C6.54446852 19.54399131 5.92374601 18.24293771 5.3125 16.9375 C4.99216797 16.27427734 4.67183594 15.61105469 4.34179688 14.92773438 C3.5521402 13.28949142 2.77487638 11.64528546 2 10 C3.64489269 15.24965751 5.48842908 20.09102048 8 25 C8.6875 27.375 8.6875 27.375 9 29 C8.01 28.67 7.02 28.34 6 28 C6 28.99 6 29.98 6 31 C5.01 31 4.02 31 3 31 C2.505 32.485 2.505 32.485 2 34 C-3.54976459 25.98367336 -7.90553951 16.9609346 -7 7 C-5.68 7.33 -4.36 7.66 -3 8 C-3 8.99 -3 9.98 -3 11 C-3.33 11.33 -3.66 11.66 -4 12 C-3.34 11.67 -2.68 11.34 -2 11 C-1.39397335 8.63804589 -1.39397335 8.63804589 -1 6 C-0.814375 5.278125 -0.62875 4.55625 -0.4375 3.8125 C0.07821351 1.98673164 0.07821351 1.98673164 0 0 Z M11 3 C13.44585235 5.28474831 15.27675657 7.71370338 17.125 10.5 C17.64320313 11.2734375 18.16140625 12.046875 18.6953125 12.84375 C20 15 20 15 21 18 C17.17090709 16.52663164 15.78616322 14.56408372 13.75 11.0625 C13.22921875 10.18722656 12.7084375 9.31195313 12.171875 8.41015625 C11 6 11 6 11 3 Z " fill="#051126" transform="translate(153,272)"/>
<path d="M0 0 C0.79921875 0.00644531 1.5984375 0.01289063 2.421875 0.01953125 C3.246875 0.03628906 4.071875 0.05304688 4.921875 0.0703125 C5.76234375 0.07933594 6.6028125 0.08835938 7.46875 0.09765625 C9.53658104 0.12115433 11.60426495 0.15702342 13.671875 0.1953125 C13.341875 0.8553125 13.011875 1.5153125 12.671875 2.1953125 C16.301875 2.1953125 19.931875 2.1953125 23.671875 2.1953125 C23.671875 2.5253125 23.671875 2.8553125 23.671875 3.1953125 C20.371875 3.5253125 17.071875 3.8553125 13.671875 4.1953125 C13.671875 4.8553125 13.671875 5.5153125 13.671875 6.1953125 C11.691875 6.8553125 9.711875 7.5153125 7.671875 8.1953125 C8.65929687 8.24429688 9.64671875 8.29328125 10.6640625 8.34375 C11.94539063 8.41851562 13.22671875 8.49328125 14.546875 8.5703125 C15.82304687 8.63992187 17.09921875 8.70953125 18.4140625 8.78125 C21.671875 9.1953125 21.671875 9.1953125 23.671875 11.1953125 C22.83994629 11.17960205 22.83994629 11.17960205 21.99121094 11.16357422 C19.46814541 11.12189246 16.94515247 11.09594812 14.421875 11.0703125 C13.54917969 11.05355469 12.67648438 11.03679687 11.77734375 11.01953125 C10.51083984 11.00986328 10.51083984 11.00986328 9.21875 11 C8.44370117 10.98952637 7.66865234 10.97905273 6.87011719 10.96826172 C4.37454628 11.22602282 2.7946079 11.87373726 0.671875 13.1953125 C-0.0267174 14.51219932 -0.69204209 15.84712084 -1.328125 17.1953125 C-3.02734375 18.8359375 -3.02734375 18.8359375 -5.015625 20.4453125 C-11.44055573 25.90242245 -16.43164926 31.71407907 -20.328125 39.1953125 C-20.988125 39.1953125 -21.648125 39.1953125 -22.328125 39.1953125 C-21.98573444 33.71706349 -18.637572 30.28392542 -15.328125 26.1953125 C-14.90015625 25.63199219 -14.4721875 25.06867188 -14.03125 24.48828125 C-11.16771021 20.81588445 -8.2586683 18.57192007 -4.328125 16.1953125 C-4.658125 15.2053125 -4.988125 14.2153125 -5.328125 13.1953125 C-4.998125 12.5353125 -4.668125 11.8753125 -4.328125 11.1953125 C-4.988125 11.1953125 -5.648125 11.1953125 -6.328125 11.1953125 C-6.988125 8.2253125 -7.648125 5.2553125 -8.328125 2.1953125 C-4.70316658 0.38283329 -3.7329544 -0.05332792 0 0 Z " fill="#041228" transform="translate(120.328125,227.8046875)"/>
<path d="M0 0 C1.98 0 3.96 0 6 0 C6 16.5 6 33 6 50 C3.525 50.495 3.525 50.495 1 51 C0 50 0 50 -0.12025452 47.98155212 C-0.11803391 47.09552811 -0.11581329 46.20950409 -0.11352539 45.29663086 C-0.11344986 44.29566879 -0.11337433 43.29470673 -0.11329651 42.26341248 C-0.10813522 41.1748848 -0.10297394 40.08635712 -0.09765625 38.96484375 C-0.0962413 37.85645645 -0.09482635 36.74806915 -0.09336853 35.60609436 C-0.08775033 32.04986931 -0.07519475 28.49370617 -0.0625 24.9375 C-0.05748734 22.53320403 -0.05292403 20.12890708 -0.04882812 17.72460938 C-0.03777499 11.81638496 -0.02101917 5.9081969 0 0 Z " fill="#E8E8E8" transform="translate(574,214)"/>
<path d="M0 0 C0.66 0 1.32 0 2 0 C2.33 0.99 2.66 1.98 3 3 C3.33 2.34 3.66 1.68 4 1 C4.99 1 5.98 1 7 1 C7 1.66 7 2.32 7 3 C7.66 3 8.32 3 9 3 C8.43697042 6.94120709 7.3208055 9.7508723 5 13 C4.34 13 3.68 13 3 13 C2.773125 13.556875 2.54625 14.11375 2.3125 14.6875 C0.6407496 17.63296499 -1.58281215 19.64324185 -4 22 C-4.66 22.99 -5.32 23.98 -6 25 C1.58582234 19.08870759 6.70279341 11.94580989 12 4 C12.66 4 13.32 4 14 4 C10.84875013 12.73477512 2.84554733 23.12988892 -5.6015625 27.27734375 C-8 28 -8 28 -10.25 27.125 C-10.8275 26.75375 -11.405 26.3825 -12 26 C-12.33 26 -12.66 26 -13 26 C-13.66 25.67 -14.32 25.34 -15 25 C-14.41325335 21.5404808 -13.22706971 19.88018271 -10.8125 17.375 C-6.19131628 12.29646202 -2.1838495 6.5515485 0 0 Z " fill="#030C1D" transform="translate(208,209)"/>
<path d="M0 0 C1.65 0 3.3 0 5 0 C10.30827755 9.87786275 12.49722117 18.9928042 14 30 C13.34 30 12.68 30 12 30 C12 29.34 12 28.68 12 28 C11.34 28 10.68 28 10 28 C10 28.66 10 29.32 10 30 C9.34 30 8.68 30 8 30 C7.34 27.69 6.68 25.38 6 23 C6 24.98 6 26.96 6 29 C3.17929333 24.76893999 1.92717654 20.14967049 0.31640625 15.34765625 C-0.85382389 12.37172976 -2.08643254 10.4937745 -4 8 C-4 7.01 -4 6.02 -4 5 C-3.34 5 -2.68 5 -2 5 C-1.34 3.35 -0.68 1.7 0 0 Z " fill="#07142A" transform="translate(168,172)"/>
<path d="M0 0 C0.33 0 0.66 0 1 0 C1 2.31 1 4.62 1 7 C2.65 6.67 4.3 6.34 6 6 C4.99016155 8.17503665 3.97221019 10.03589517 2.5 11.9375 C0.86012671 14.19232577 -0.05633911 16.38678522 -1 19 C-1.99 19 -2.98 19 -4 19 C-4.33 21.64 -4.66 24.28 -5 27 C-6.98 26.67 -8.96 26.34 -11 26 C-11 25.34 -11 24.68 -11 24 C-11.99 24 -12.98 24 -14 24 C-13.67 21.36 -13.34 18.72 -13 16 C-13.99 17.98 -14.98 19.96 -16 22 C-16.83859148 19.62752916 -17.12864261 18.38518851 -16.3203125 15.96484375 C-13.83934405 11.75692667 -12.19727239 9.69822481 -7.375 8.4375 C-6.60027344 8.24414062 -5.82554687 8.05078125 -5.02734375 7.8515625 C-2.47353322 6.77886367 -1.98696061 5.833214 -0.9375 3.3125 C-0.628125 2.219375 -0.31875 1.12625 0 0 Z " fill="#040F1F" transform="translate(142,253)"/>
<path d="M0 0 C8.96369216 -0.35801729 17.51265532 -0.24035226 26 3 C26.33 3.66 26.66 4.32 27 5 C26.29875 4.95875 25.5975 4.9175 24.875 4.875 C21.61628372 5.01668332 19.0440053 5.86734686 16 7 C21.94 8.485 21.94 8.485 28 10 C28 11.33333333 28 12.66666667 28 14 C15.13 13.505 15.13 13.505 2 13 C6.31927394 9.76054455 7.15201511 9.64626136 12.25 9.8125 C15.09625 9.9053125 15.09625 9.9053125 18 10 C12.72 9.67 7.44 9.34 2 9 C2 8.34 2 7.68 2 7 C3.32 6.67 4.64 6.34 6 6 C3.03 5.505 3.03 5.505 0 5 C0 3.33333333 0 1.66666667 0 0 Z " fill="#07152B" transform="translate(110,210)"/>
<path d="M0 0 C0.680625 0.721875 1.36125 1.44375 2.0625 2.1875 C5.09214518 5.23455693 8.46217304 7.57207954 12 10 C12 9.01 12 8.02 12 7 C14 7 14 7 15.5 8.375 C15.995 8.91125 16.49 9.4475 17 10 C17.66 10.66 18.32 11.32 19 12 C19 12.66 19 13.32 19 14 C20.29233607 15.37310707 21.62437146 16.71034824 23 18 C21.68 17.67 20.36 17.34 19 17 C19.33 17.99 19.66 18.98 20 20 C17.0280615 18.87548273 14.66559313 17.77706209 12 16 C12.825 16.78375 13.65 17.5675 14.5 18.375 C17 21 17 21 17 23 C16.01 23 15.02 23 14 23 C14 23.66 14 24.32 14 25 C9.38183821 22.92978954 7.02426712 20.47119888 4.8125 15.9375 C4.46832031 15.24527344 4.12414062 14.55304688 3.76953125 13.83984375 C3 12 3 12 3 10 C2.01 10 1.02 10 0 10 C0 6.7 0 3.4 0 0 Z " fill="#031024" transform="translate(163,262)"/>
<path d="M0 0 C0.33 0.99 0.66 1.98 1 3 C1.99 2.67 2.98 2.34 4 2 C2.99736868 10.56092894 -4.61894809 17.13306172 -11.0625 22.25 C-11.89136719 22.87261719 -12.72023437 23.49523437 -13.57421875 24.13671875 C-16.65486232 26.50301019 -19.42786462 29.14156198 -22.2109375 31.84765625 C-24 33 -24 33 -26.2265625 32.68359375 C-26.81179687 32.45800781 -27.39703125 32.23242188 -28 32 C-26.68 31.67 -25.36 31.34 -24 31 C-24 30.34 -24 29.68 -24 29 C-25.65 29 -27.3 29 -29 29 C-28.42507812 28.74476563 -27.85015625 28.48953125 -27.2578125 28.2265625 C-23.99056679 26.45162279 -21.52191069 23.97308725 -18.8046875 21.4609375 C-17 20 -17 20 -15 20 C-15 19.34 -15 18.68 -15 18 C-13.84715297 16.81324571 -12.68775422 15.63214995 -11.49609375 14.484375 C-7.06165241 10.08466819 -3.3392805 5.26578848 0 0 Z " fill="#021127" transform="translate(224,214)"/>
<path d="M0 0 C1.32 0 2.64 0 4 0 C5.00155907 3.43033983 5.26576761 6.75300428 5.5 10.3125 C5.82693943 14.92078909 6.25792993 19.4415696 7 24 C3.04 24 -0.92 24 -5 24 C-2.06732348 2.06732348 -2.06732348 2.06732348 0 0 Z " fill="#0B0B0B" transform="translate(526,219)"/>
<path d="M0 0 C3.32382587 4.33542505 4.12018668 6.47141274 4 12 C3.36191406 12.26554688 2.72382813 12.53109375 2.06640625 12.8046875 C1.24011719 13.15789062 0.41382813 13.51109375 -0.4375 13.875 C-1.26121094 14.22304687 -2.08492187 14.57109375 -2.93359375 14.9296875 C-5.15746715 15.8244937 -5.15746715 15.8244937 -6 18 C-5.34 18 -4.68 18 -4 18 C-4 18.99 -4 19.98 -4 21 C-2.68 21.33 -1.36 21.66 0 22 C-0.3125 24.375 -0.3125 24.375 -1 27 C-1.99 27.66 -2.98 28.32 -4 29 C-4.33 27.02 -4.66 25.04 -5 23 C-5.99 22.67 -6.98 22.34 -8 22 C-8 21.34 -8 20.68 -8 20 C-9.71509766 19.92652344 -9.71509766 19.92652344 -11.46484375 19.8515625 C-12.95575473 19.77654811 -14.44663892 19.70099972 -15.9375 19.625 C-16.69224609 19.5940625 -17.44699219 19.563125 -18.22460938 19.53125 C-20.15507395 19.4273685 -22.07942081 19.22104386 -24 19 C-24.33 18.34 -24.66 17.68 -25 17 C-21.535 16.505 -21.535 16.505 -18 16 C-18 15.34 -18 14.68 -18 14 C-15.79344925 13.49219106 -13.58466395 12.99408635 -11.375 12.5 C-10.14523438 12.2215625 -8.91546875 11.943125 -7.6484375 11.65625 C-4.32847772 11.05908379 -1.36091549 10.87590466 2 11 C1.67 9.9275 1.34 8.855 1 7.75 C0 4 0 4 0 0 Z " fill="#0A316A" transform="translate(152,218)"/>
<path d="M0 0 C2.74990336 2.74990336 3.00904017 5.82194877 3.8125 9.5 C5.19835339 15.50289796 6.96822629 20.69439601 10.046875 26.08203125 C11 28 11 28 11 31 C10.34 31 9.68 31 9 31 C9 31.66 9 32.32 9 33 C7.19921875 32.92578125 7.19921875 32.92578125 5 32 C3.73114114 29.70297916 2.75104956 27.6131021 1.8125 25.1875 C1.55275391 24.55779297 1.29300781 23.92808594 1.02539062 23.27929688 C-1.12453171 17.98504368 -2.13037507 13.95150553 -2.0625 8.25 C-2.05347656 7.26515625 -2.04445312 6.2803125 -2.03515625 5.265625 C-2.02355469 4.51796875 -2.01195312 3.7703125 -2 3 C-1.34 3 -0.68 3 0 3 C0 2.01 0 1.02 0 0 Z " fill="#051226" transform="translate(142,278)"/>
<path d="M0 0 C0.33 0 0.66 0 1 0 C1.33 2.31 1.66 4.62 2 7 C2.33 5.35 2.66 3.7 3 2 C3.66 2 4.32 2 5 2 C4.88590318 4.10478604 4.75834639 6.20884577 4.625 8.3125 C4.55539063 9.48425781 4.48578125 10.65601563 4.4140625 11.86328125 C4 15 4 15 2 18 C2.66 18 3.32 18 4 18 C4 18.66 4 19.32 4 20 C5.65 19.67 7.3 19.34 9 19 C7.82744291 22.33727786 6.81131596 24.77437487 4 27 C3.34 27 2.68 27 2 27 C2 26.34 2 25.68 2 25 C-0.42084116 25.94127798 -0.42084116 25.94127798 -1.5 29.5 C-3 33 -3 33 -5 34 C-4.1176005 29.33454732 -3.21994146 24.74535716 -1.875 20.1875 C-0.77940252 16.7472977 -0.77940252 16.7472977 -1 12 C-2.65 14.97 -4.3 17.94 -6 21 C-6.33 20.34 -6.66 19.68 -7 19 C-6.06427559 16.61390275 -5.07808005 14.32021576 -4 12 C-2.20338257 7.99216111 -0.65974338 4.35430628 0 0 Z " fill="#030E22" transform="translate(183,200)"/>
<path d="M0 0 C11.385 0.99 11.385 0.99 23 2 C22.67 2.66 22.34 3.32 22 4 C22.66 4.33 23.32 4.66 24 5 C24.40729228 7.32156597 24.74438677 9.6568787 25 12 C22.62412376 11.88513575 20.24984829 11.75841844 17.875 11.625 C16.87726563 11.57859375 16.87726563 11.57859375 15.859375 11.53125 C11.60178738 11.28080367 7.97914217 10.52471803 4 9 C4.99 8.34 5.98 7.68 7 7 C4.69 6.34 2.38 5.68 0 5 C0 4.34 0 3.68 0 3 C1.65 3 3.3 3 5 3 C2.525 2.01 2.525 2.01 0 1 C0 0.67 0 0.34 0 0 Z " fill="#071429" transform="translate(190,264)"/>
<path d="M0 0 C-0.99 0.66 -1.98 1.32 -3 2 C-2.01257813 2.04898438 -1.02515625 2.09796875 -0.0078125 2.1484375 C1.91417969 2.26058594 1.91417969 2.26058594 3.875 2.375 C5.15117187 2.44460937 6.42734375 2.51421875 7.7421875 2.5859375 C11 3 11 3 13 5 C12.16807129 4.98428955 12.16807129 4.98428955 11.31933594 4.96826172 C8.79627041 4.92657996 6.27327747 4.90063562 3.75 4.875 C2.87730469 4.85824219 2.00460938 4.84148437 1.10546875 4.82421875 C-0.16103516 4.81455078 -0.16103516 4.81455078 -1.453125 4.8046875 C-2.22817383 4.79421387 -3.00322266 4.78374023 -3.80175781 4.77294922 C-6.29732872 5.03071032 -7.8772671 5.67842476 -10 7 C-10.6985924 8.31688682 -11.36391709 9.65180834 -12 11 C-13.69921875 12.640625 -13.69921875 12.640625 -15.6875 14.25 C-22.11243073 19.70710995 -27.10352426 25.51876657 -31 33 C-31.66 33 -32.32 33 -33 33 C-32.65760944 27.52175099 -29.309447 24.08861292 -26 20 C-25.57203125 19.43667969 -25.1440625 18.87335938 -24.703125 18.29296875 C-21.83958521 14.62057195 -18.9305433 12.37660757 -15 10 C-15.33 9.01 -15.66 8.02 -16 7 C-13.69 5.68 -11.38 4.36 -9 3 C-10.98 3.33 -12.96 3.66 -15 4 C-15 3.34 -15 2.68 -15 2 C-9.75614911 0.2520497 -5.52677733 -0.19392201 0 0 Z " fill="#071224" transform="translate(131,234)"/>
<path d="M0 0 C1.18613892 0.00785522 1.18613892 0.00785522 2.39624023 0.01586914 C3.67724609 0.02070313 3.67724609 0.02070313 4.98413086 0.02563477 C5.88196289 0.03401367 6.77979492 0.04239258 7.70483398 0.05102539 C8.6065332 0.05553711 9.50823242 0.06004883 10.43725586 0.06469727 C12.67234712 0.07652315 14.90730835 0.09300319 17.14233398 0.11352539 C17.14233398 0.44352539 17.14233398 0.77352539 17.14233398 1.11352539 C8.72733398 1.60852539 8.72733398 1.60852539 0.14233398 2.11352539 C-0.18766602 18.28352539 -0.51766602 34.45352539 -0.85766602 51.11352539 C5.08233398 51.11352539 11.02233398 51.11352539 17.14233398 51.11352539 C17.14233398 51.44352539 17.14233398 51.77352539 17.14233398 52.11352539 C13.99651975 52.14241053 10.8507393 52.16028462 7.70483398 52.17602539 C6.80700195 52.1844043 5.90916992 52.1927832 4.98413086 52.20141602 C3.703125 52.20625 3.703125 52.20625 2.39624023 52.21118164 C1.60548096 52.21641846 0.81472168 52.22165527 0 52.22705078 C-1.85766602 52.11352539 -1.85766602 52.11352539 -2.85766602 51.11352539 C-2.95613568 49.55353491 -2.98565219 47.98911995 -2.98706055 46.42602539 C-2.99021271 45.42829102 -2.99336487 44.43055664 -2.99661255 43.40258789 C-2.99458832 42.31719727 -2.99256409 41.23180664 -2.99047852 40.11352539 C-2.99143524 39.00750977 -2.99239197 37.90149414 -2.99337769 36.76196289 C-2.99405968 34.41821231 -2.99220406 32.07445986 -2.98803711 29.73071289 C-2.98268915 26.12910751 -2.98798148 22.52762686 -2.99438477 18.92602539 C-2.99372399 16.65519178 -2.99244283 14.38435825 -2.99047852 12.11352539 C-2.99250275 11.02813477 -2.99452698 9.94274414 -2.99661255 8.82446289 C-2.99346039 7.82672852 -2.99030823 6.82899414 -2.98706055 5.80102539 C-2.98626495 4.91801758 -2.98546936 4.03500977 -2.98464966 3.12524414 C-2.81908093 0.50224711 -2.6290293 0.16066482 0 0 Z " fill="#B9B9B9" transform="translate(396.857666015625,212.886474609375)"/>
<path d="M0 0 C0.66 0 1.32 0 2 0 C3.13277268 2.18376766 4.25622789 4.37157128 5.375 6.5625 C5.69210938 7.17158203 6.00921875 7.78066406 6.3359375 8.40820312 C9.19526281 14.03749984 11.38943042 19.57439806 11 26 C8.8614515 23.8614515 8.57344937 22.86724686 8 20 C7.34 20.66 6.68 21.32 6 22 C4.68504458 19.39704724 3.37295014 16.79271967 2.0625 14.1875 C1.68931641 13.44951172 1.31613281 12.71152344 0.93164062 11.95117188 C0.57392578 11.23896484 0.21621094 10.52675781 -0.15234375 9.79296875 C-0.48226318 9.1383667 -0.81218262 8.48376465 -1.15209961 7.80932617 C-2 6 -2 6 -3 3 C-2.01 3 -1.02 3 0 3 C0 2.01 0 1.02 0 0 Z " fill="#020C20" transform="translate(161,180)"/>
<path d="M0 0 C0.99 0.144375 1.98 0.28875 3 0.4375 C9.96446221 1.32067456 16.99473922 1.60042809 24 2 C24 2.99 24 3.98 24 5 C20.04 5 16.08 5 12 5 C15.96 5.33 19.92 5.66 24 6 C24 6.66 24 7.32 24 8 C20.62405195 7.91859225 17.24984087 7.80579799 13.875 7.6875 C12.92367187 7.66494141 11.97234375 7.64238281 10.9921875 7.61914062 C5.60461174 7.41336516 1.69101893 6.94570717 -3 4 C-3 3.34 -3 2.68 -3 2 C-0.36 2.33 2.28 2.66 5 3 C2.525 2.01 2.525 2.01 0 1 C0 0.67 0 0.34 0 0 Z " fill="#081222" transform="translate(192,275)"/>
<path d="M0 0 C0.33 0 0.66 0 1 0 C1.30748219 5.7883523 0.24369016 10.43780698 -1.5 15.9375 C-1.73847656 16.71673828 -1.97695312 17.49597656 -2.22265625 18.29882812 C-2.80642178 20.20190376 -3.40199976 22.10134922 -4 24 C-4.66 24 -5.32 24 -6 24 C-6.28875 24.61875 -6.5775 25.2375 -6.875 25.875 C-8 28 -8 28 -10 30 C-9.39009109 26.44219804 -8.4216319 23.3171411 -7 20 C-6.34 20 -5.68 20 -5 20 C-5 18.68 -5 17.36 -5 16 C-6.98 16.99 -6.98 16.99 -9 18 C-8.54958131 13.04539436 -7.49167649 11.3919143 -4 8 C-2.51927607 5.39994917 -1.24171721 2.72121005 0 0 Z " fill="#124B9C" transform="translate(182,210)"/>
<path d="M0 0 C0.66 0 1.32 0 2 0 C1.67 1.98 1.34 3.96 1 6 C8.65074958 7.55123466 16.21191437 8.48351265 24 9 C24 9.66 24 10.32 24 11 C18.04688749 16.77326017 10.86971771 16.88744146 3 17 C1.48599609 17.02320313 1.48599609 17.02320313 -0.05859375 17.046875 C-2.37407948 17.06001251 -4.68506913 17.0470302 -7 17 C-4.0873107 15.05820713 -3.19927405 14.71122124 0.08984375 14.40234375 C0.87423828 14.32306641 1.65863281 14.24378906 2.46679688 14.16210938 C3.28212891 14.08798828 4.09746094 14.01386719 4.9375 13.9375 C6.55102149 13.78242764 8.16431455 13.62495575 9.77734375 13.46484375 C10.49140381 13.399021 11.20546387 13.33319824 11.94116211 13.26538086 C14.01995904 12.99742731 15.97871384 12.54831402 18 12 C18 11.34 18 10.68 18 10 C17.3709375 10.03480469 16.741875 10.06960937 16.09375 10.10546875 C9.96903712 10.29917202 5.52942446 9.71444473 0 7 C-1.04449911 3.86650268 -0.93423645 3.01031744 0 0 Z " fill="#07264F" transform="translate(176,234)"/>
<path d="M0 0 C0.66 3.3 1.32 6.6 2 10 C-2.29 10 -6.58 10 -11 10 C-11 9.67 -11 9.34 -11 9 C-9.35 8.67 -7.7 8.34 -6 8 C-8.31 7.34 -10.62 6.68 -13 6 C-12.67 4.68 -12.34 3.36 -12 2 C-7.69214025 0.64851459 -4.58042408 0 0 0 Z " fill="#061123" transform="translate(211,254)"/>
<path d="M0 0 C0.66 1.32 1.32 2.64 2 4 C1.2265625 4.86625 1.2265625 4.86625 0.4375 5.75 C-1.26505193 7.87827523 -1.26505193 7.87827523 -0.6875 10.25 C-0.3471875 11.11625 -0.3471875 11.11625 0 12 C2.87420123 9.28395285 2.87420123 9.28395285 5 6 C9.39568848 6.84532471 11.51730028 7.44489532 14.5 10.875 C16.1069007 14.22270979 16.08595765 14.69926029 15 18 C14.16094435 16.87926138 13.32892169 15.75325453 12.5 14.625 C12.0359375 13.99851562 11.571875 13.37203125 11.09375 12.7265625 C10 11 10 11 10 9 C8.35 9.33 6.7 9.66 5 10 C5 10.66 5 11.32 5 12 C4.34 12 3.68 12 3 12 C2.67 12.99 2.34 13.98 2 15 C0.02 15.33 -1.96 15.66 -4 16 C-4.5326514 9.741346 -2.81849506 5.54891215 0 0 Z " fill="#0A2854" transform="translate(147,244)"/>
<path d="M0 0 C5.70894866 2.52772025 9.37248395 7.1882905 11.9375 12.8125 C12.288125 13.864375 12.63875 14.91625 13 16 C12.67 16.66 12.34 17.32 12 18 C11.278125 17.195625 10.55625 16.39125 9.8125 15.5625 C6.84467221 12.85847913 5.74701216 12.70889419 2 12 C0.54286376 9.84898936 0 8.59713506 0 6 C-1.45833358 4.37485532 -1.45833358 4.37485532 -3 3 C-0.07120629 3.62759865 2.36095629 4.58622659 5 6 C3.35 4.02 1.7 2.04 0 0 Z " fill="#031126" transform="translate(143,196)"/>
<path d="M0 0 C0.33 0.99 0.66 1.98 1 3 C2.65 2.67 4.3 2.34 6 2 C4.99016155 4.17503665 3.97221019 6.03589517 2.5 7.9375 C0.86012671 10.19232577 -0.05633911 12.38678522 -1 15 C-1.99 15 -2.98 15 -4 15 C-4.33 17.64 -4.66 20.28 -5 23 C-5.33 23 -5.66 23 -6 23 C-6.40959991 17.26560121 -5.81542183 13.96467385 -3.0234375 8.96484375 C-1.51668362 6.07210634 -0.78910193 3.15640773 0 0 Z " fill="#08162E" transform="translate(142,257)"/>
<path d="M0 0 C-0.99 0.66 -1.98 1.32 -3 2 C-1.51886719 2.07347656 -1.51886719 2.07347656 -0.0078125 2.1484375 C1.91417969 2.26058594 1.91417969 2.26058594 3.875 2.375 C5.15117187 2.44460937 6.42734375 2.51421875 7.7421875 2.5859375 C11 3 11 3 13 5 C11.73285156 4.96519531 10.46570313 4.93039063 9.16015625 4.89453125 C7.46095089 4.86636763 5.76173102 4.83907025 4.0625 4.8125 C3.23169922 4.78736328 2.40089844 4.76222656 1.54492188 4.73632812 C-4.50202899 4.66574115 -9.39516349 5.74535602 -15 8 C-12.9927092 4.9890638 -12.16115776 4.36983503 -9 3 C-10.98 3.33 -12.96 3.66 -15 4 C-15 3.34 -15 2.68 -15 2 C-9.75614911 0.2520497 -5.52677733 -0.19392201 0 0 Z " fill="#091D3A" transform="translate(131,234)"/>
<path d="M0 0 C0 0.66 0 1.32 0 2 C-0.99 2.804375 -1.98 3.60875 -3 4.4375 C-8.94111286 9.33801061 -13.7690944 16.01337164 -17 23 C-16.34 23.33 -15.68 23.66 -15 24 C-15.99 24 -16.98 24 -18 24 C-18.7109375 22.32421875 -18.7109375 22.32421875 -19 20 C-16.0152667 14.45817063 -6.87778268 0 0 0 Z " fill="#000A1E" transform="translate(119,245)"/>
<path d="M0 0 C1.43410153 3.78819273 0.51009497 6.06521279 -0.9375 9.75 C-1.31777344 10.73484375 -1.69804687 11.7196875 -2.08984375 12.734375 C-2.39019531 13.48203125 -2.69054687 14.2296875 -3 15 C-3.66 15 -4.32 15 -5 15 C-6.88391785 18.26545761 -7.49287967 21.28111761 -8 25 C-8.66 25 -9.32 25 -10 25 C-10.89356781 19.34073723 -8.52723719 16.18204812 -5.6015625 11.61328125 C-3.33100146 7.90839019 -1.64763846 4.01248426 0 0 Z " fill="#041226" transform="translate(142,253)"/>
<path d="M0 0 C0.66 0 1.32 0 2 0 C-1.08997957 8.56494337 -7.99626669 16.27341806 -15 22 C-17.7421875 23.22265625 -17.7421875 23.22265625 -20 24 C-17.92921051 21.21239877 -16.00855716 19.00661235 -13.25 16.875 C-7.66765155 12.43190633 -3.9184701 5.87770515 0 0 Z " fill="#09172C" transform="translate(220,213)"/>
<path d="M0 0 C0.66 0.33 1.32 0.66 2 1 C1.835 1.61875 1.67 2.2375 1.5 2.875 C0.92365356 4.96063386 0.92365356 4.96063386 1 7 C-4.10334017 8.905247 -8.46342706 10.42589023 -14 10 C-13.67 9.34 -13.34 8.68 -13 8 C-12.13375 7.7525 -11.2675 7.505 -10.375 7.25 C-6.06589307 5.65403447 -3.31004786 3.11418704 0 0 Z " fill="#010713" transform="translate(208,239)"/>
<path d="M0 0 C8.69821697 -0.37879332 16.73832134 0.02306455 25 3 C25.66 3.66 26.32 4.32 27 5 C25.71222656 4.85691406 24.42445313 4.71382812 23.09765625 4.56640625 C22.27539551 4.47504395 21.45313477 4.38368164 20.60595703 4.28955078 C19.74599121 4.19399902 18.88602539 4.09844727 18 4 C16.79706299 3.86634033 16.79706299 3.86634033 15.56982422 3.72998047 C13.19238281 3.46582031 10.81494141 3.20166016 8.4375 2.9375 C7.61958984 2.84662109 6.80167969 2.75574219 5.95898438 2.66210938 C3.97265625 2.44140625 1.98632812 2.22070312 0 2 C0 1.34 0 0.68 0 0 Z " fill="#091930" transform="translate(109,206)"/>
<path d="M0 0 C2.64 0.33 5.28 0.66 8 1 C7.67 1.66 7.34 2.32 7 3 C6.34 2.67 5.68 2.34 5 2 C4.896875 3.051875 4.79375 4.10375 4.6875 5.1875 C4.02266585 8.87430754 3.11433704 10.96638599 1 14 C-0.76015574 10.47968852 1.10190791 6.69802625 2 3 C1.01 5.97 0.02 8.94 -1 12 C-1.33 12 -1.66 12 -2 12 C-1.85831863 10.56208484 -1.71148957 9.1246763 -1.5625 7.6875 C-1.48128906 6.88699219 -1.40007812 6.08648437 -1.31640625 5.26171875 C-1 3 -1 3 0 0 Z " fill="#010714" transform="translate(188,202)"/>
<path d="M0 0 C0.33 0 0.66 0 1 0 C1.25394531 0.86882812 1.50789062 1.73765625 1.76953125 2.6328125 C2.11371094 3.78523437 2.45789063 4.93765625 2.8125 6.125 C3.14894531 7.26195312 3.48539063 8.39890625 3.83203125 9.5703125 C4.9163579 13.04266366 4.9163579 13.04266366 6.69921875 16.2421875 C8 19 8 19 7 22 C4.69 20.35 2.38 18.7 0 17 C0.99 16.67 1.98 16.34 3 16 C2.7834375 15.34773438 2.566875 14.69546875 2.34375 14.0234375 C0.81497692 9.22478868 -0.40269324 5.10078102 0 0 Z " fill="#0A2652" transform="translate(168,251)"/>
<path d="M0 0 C3.82943966 0.57835931 5.84938662 2.31366131 8.6875 4.875 C9.47511719 5.57367188 10.26273438 6.27234375 11.07421875 6.9921875 C13 9 13 9 14 12 C13.34 12 12.68 12 12 12 C12 11.34 12 10.68 12 10 C9.525 9.01 9.525 9.01 7 8 C6.67 9.32 6.34 10.64 6 12 C5.18432826 10.56429734 4.37257907 9.12636566 3.5625 7.6875 C3.11003906 6.88699219 2.65757812 6.08648437 2.19140625 5.26171875 C1 3 1 3 0 0 Z " fill="#103D7D" transform="translate(147,208)"/>
<path d="M0 0 C2.475 0.99 2.475 0.99 5 2 C5 2.66 5 3.32 5 4 C5.99 4 6.98 4 8 4 C7.67 5.65 7.34 7.3 7 9 C5.35 9.33 3.7 9.66 2 10 C-0.09350689 6.5980513 -0.17942163 3.94727588 0 0 Z " fill="#0E479B" transform="translate(154,216)"/>
<path d="M0 0 C0.33 0.99 0.66 1.98 1 3 C-2.82962221 9.77630375 -7.87081743 15.27542177 -14 20 C-14.66 19.67 -15.32 19.34 -16 19 C-15.43152344 18.46632812 -14.86304688 17.93265625 -14.27734375 17.3828125 C-8.72359612 12.02377054 -4.20040868 6.46943974 0 0 Z " fill="#0E1B32" transform="translate(227,216)"/>
<path d="M0 0 C8.55937129 -0.36741339 15.86222087 0.26022667 24 3 C24 3.33 24 3.66 24 4 C15.98529415 3.45721733 7.98696098 2.86494739 0 2 C0 1.34 0 0.68 0 0 Z " fill="#071C37" transform="translate(107,198)"/>
<path d="M0 0 C1.65 0 3.3 0 5 0 C4.773125 0.53625 4.54625 1.0725 4.3125 1.625 C3.74852584 4.19714407 3.74852584 4.19714407 5.5 7 C7 10 7 10 6 14 C4.35 11.03 2.7 8.06 1 5 C0.01 6.485 0.01 6.485 -1 8 C-1.99 7.01 -2.98 6.02 -4 5 C-3.34 5 -2.68 5 -2 5 C-1.34 3.35 -0.68 1.7 0 0 Z " fill="#020A1D" transform="translate(168,172)"/>
<path d="M0 0 C0.33 0 0.66 0 1 0 C1 5.28 1 10.56 1 16 C0.34 14.68 -0.32 13.36 -1 12 C-2.65 14.97 -4.3 17.94 -6 21 C-6.33 20.34 -6.66 19.68 -7 19 C-6.06427559 16.61390275 -5.07808005 14.32021576 -4 12 C-2.20338257 7.99216111 -0.65974338 4.35430628 0 0 Z " fill="#061A3B" transform="translate(183,200)"/>
<path d="M0 0 C1.45290655 1.91171914 2.88172209 3.82124341 4.20703125 5.82421875 C4.84705078 6.77748047 4.84705078 6.77748047 5.5 7.75 C5.9021875 8.36359375 6.304375 8.9771875 6.71875 9.609375 C7.1415625 10.06828125 7.564375 10.5271875 8 11 C8.99 11 9.98 11 11 11 C11 11.66 11 12.32 11 13 C10.01 13 9.02 13 8 13 C8 13.99 8 14.98 8 16 C6.02 16.99 6.02 16.99 4 18 C3.67 16.02 3.34 14.04 3 12 C4.32 12.66 5.64 13.32 7 14 C6.4946875 13.32453125 5.989375 12.6490625 5.46875 11.953125 C4.8190625 11.06109375 4.169375 10.1690625 3.5 9.25 C2.8503125 8.36828125 2.200625 7.4865625 1.53125 6.578125 C0 4 0 4 0 0 Z " fill="#010A19" transform="translate(164,278)"/>
<path d="M0 0 C1 3 1 3 0.22265625 4.82421875 C-0.8515625 6.54947917 -1.92578125 8.27473958 -3 10 C-3.66 10 -4.32 10 -5 10 C-5.226875 10.556875 -5.45375 11.11375 -5.6875 11.6875 C-7.38617978 14.68041199 -9.42072687 16.73527237 -12 19 C-12.99 19 -13.98 19 -15 19 C-14.50371094 18.55011719 -14.00742188 18.10023438 -13.49609375 17.63671875 C-7.90057256 12.3384928 -3.89817185 6.62689215 0 0 Z " fill="#081629" transform="translate(216,212)"/>
<path d="M0 0 C0.33 0.99 0.66 1.98 1 3 C-0.51171875 5.55859375 -0.51171875 5.55859375 -2.6875 8.4375 C-3.74517578 9.85869141 -3.74517578 9.85869141 -4.82421875 11.30859375 C-6.7646845 13.70891853 -8.76998434 15.87066225 -11 18 C-11.66 17.67 -12.32 17.34 -13 17 C-12.39671875 16.27554688 -11.7934375 15.55109375 -11.171875 14.8046875 C-5.24723449 7.64907525 -5.24723449 7.64907525 0 0 Z " fill="#0A1D37" transform="translate(224,214)"/>
<path d="M0 0 C0 0.33 0 0.66 0 1 C-10.395 1.495 -10.395 1.495 -21 2 C-18.12543562 -3.74912876 -5.20069684 -1.12447499 0 0 Z " fill="#08182E" transform="translate(133,225)"/>
<path d="M0 0 C5.28 0 10.56 0 16 0 C16 0.99 16 1.98 16 3 C10.22192976 3.2358396 5.48675196 2.86783046 0 1 C0 0.67 0 0.34 0 0 Z " fill="#07162E" transform="translate(200,277)"/>
<path d="M0 0 C0.66 0 1.32 0 2 0 C1.1824039 6.74516779 -2.71388954 11.94851268 -7 17 C-7.66 16.67 -8.32 16.34 -9 16 C-8.51789063 15.26394531 -8.03578125 14.52789062 -7.5390625 13.76953125 C-6.90742188 12.79371094 -6.27578125 11.81789062 -5.625 10.8125 C-4.99851563 9.84957031 -4.37203125 8.88664063 -3.7265625 7.89453125 C-2.18011688 5.30196064 -1.02491925 2.83146884 0 0 Z " fill="#081326" transform="translate(204,208)"/>
<path d="M0 0 C3.36943872 0.60168549 5.49075874 1.65804149 8 4 C9.25 6.6875 9.25 6.6875 10 9 C8.1875 9.6875 8.1875 9.6875 6 10 C4.25 8.8125 4.25 8.8125 3 7 C3 5.68 3 4.36 3 3 C1.5833253 1.2488427 1.5833253 1.2488427 0 0 Z " fill="#081930" transform="translate(140,199)"/>
<path d="M0 0 C3.50778211 4.20933853 7 9.4255442 7 15 C4 14 4 14 2.83203125 11.85546875 C2.49558594 10.97503906 2.15914062 10.09460938 1.8125 9.1875 C1.46832031 8.31480469 1.12414062 7.44210937 0.76953125 6.54296875 C0 4 0 4 0 0 Z " fill="#0B182C" transform="translate(143,296)"/>
<path d="M0 0 C2.41676735 2.99622619 4.05351027 5.99066098 5.625 9.5 C6.05039063 10.4384375 6.47578125 11.376875 6.9140625 12.34375 C7.82502348 14.57199989 8.50160306 16.65199663 9 19 C5.80295393 16.10353091 4.00068474 13.43363732 2.25 9.5 C1.82203125 8.5615625 1.3940625 7.623125 0.953125 6.65625 C0 4 0 4 0 0 Z " fill="#09182A" transform="translate(153,282)"/>
<path d="M0 0 C0 3.94041228 -1.34743794 4.91568357 -3.875 7.875 C-6.66859927 11.1492185 -8.60782863 13.91141251 -10 18 C-10.66 18 -11.32 18 -12 18 C-10.17301482 10.69205928 -5.4604995 5.04046107 0 0 Z " fill="#0C1A2F" transform="translate(122,252)"/>
<path d="M0 0 C0.33 0.99 0.66 1.98 1 3 C2.65 2.67 4.3 2.34 6 2 C4.50902342 5.7952131 2.24299151 7.61042731 -1 10 C-2.31223496 6.06329512 -1.24296256 3.87511856 0 0 Z " fill="#081F40" transform="translate(142,257)"/>
<path d="M0 0 C3.62080211 1.20693404 4.12535039 2.57737086 5.80078125 5.86914062 C6.11402344 6.51044922 6.42726562 7.15175781 6.75 7.8125 C7.07871094 8.44220703 7.40742188 9.07191406 7.74609375 9.72070312 C9.52577895 13.29884657 10.23735386 15.20866073 9 19 C7.68504458 16.39704724 6.37295014 13.79271967 5.0625 11.1875 C4.68931641 10.44951172 4.31613281 9.71152344 3.93164062 8.95117188 C3.57392578 8.23896484 3.21621094 7.52675781 2.84765625 6.79296875 C2.51773682 6.1383667 2.18781738 5.48376465 1.84790039 4.80932617 C1 3 1 3 0 0 Z " fill="#0A192D" transform="translate(158,183)"/>
<path d="M0 0 C2.44168979 3.03056792 4.13027389 6.09018596 5.75 9.625 C6.19859375 10.58664062 6.6471875 11.54828125 7.109375 12.5390625 C7.40328125 13.35117187 7.6971875 14.16328125 8 15 C7.67 15.66 7.34 16.32 7 17 C0 6.23282443 0 6.23282443 0 0 Z " fill="#0D1C38" transform="translate(148,289)"/>
<path d="M0 0 C0.66 0 1.32 0 2 0 C2.81542431 2.08219049 3.62723189 4.16579761 4.4375 6.25 C4.88996094 7.41015625 5.34242188 8.5703125 5.80859375 9.765625 C6.70150633 12.18966308 7.45794365 14.48286475 8 17 C4.26207773 14.50805182 3.84707201 12.66592522 2.3125 8.5 C1.87550781 7.3346875 1.43851563 6.169375 0.98828125 4.96875 C0 2 0 2 0 0 Z " fill="#0C1C33" transform="translate(150,285)"/>
<path d="M0 0 C0.66 0 1.32 0 2 0 C0.38343185 3.39479312 -1.50931089 6.56152337 -3.5 9.75 C-4.1084375 10.73484375 -4.716875 11.7196875 -5.34375 12.734375 C-6.16359375 13.85585938 -6.16359375 13.85585938 -7 15 C-7.66 15 -8.32 15 -9 15 C-7.61772023 9.010121 -4.16125486 4.41642615 0 0 Z " fill="#0B1E39" transform="translate(111,253)"/>
<path d="M0 0 C0.66 0.33 1.32 0.66 2 1 C0.88368586 2.83863505 -0.24329627 4.67079723 -1.375 6.5 C-2.00148438 7.5209375 -2.62796875 8.541875 -3.2734375 9.59375 C-3.84320313 10.3878125 -4.41296875 11.181875 -5 12 C-5.66 12 -6.32 12 -7 12 C-6.67566492 6.64847115 -3.50295176 3.71719957 0 0 Z " fill="#0D192E" transform="translate(105,255)"/>
<path d="M0 0 C4.15153964 3.41019328 6.53086442 7.88055823 8 13 C7.60546875 15.28125 7.60546875 15.28125 7 17 C5.82592979 14.73272667 4.66060261 12.46165376 3.5 10.1875 C3.16613281 9.54490234 2.83226562 8.90230469 2.48828125 8.24023438 C0.99760916 5.30452301 0 3.33873483 0 0 Z " fill="#091A30" transform="translate(162,181)"/>
<path d="M0 0 C3 1 3 1 4.38671875 3.109375 C4.81597656 3.98078125 5.24523437 4.8521875 5.6875 5.75 C6.12449219 6.61109375 6.56148437 7.4721875 7.01171875 8.359375 C8.04127438 11.11028252 8.19360389 13.09070905 8 16 C6.24925985 13.37388978 4.84229231 10.81797143 3.4375 8 C3.00308594 7.13375 2.56867188 6.2675 2.12109375 5.375 C1 3 1 3 0 0 Z " fill="#0A1B34" transform="translate(164,178)"/>
<path d="M0 0 C5.75 -0.125 5.75 -0.125 8 1 C7.6875 3.375 7.6875 3.375 7 6 C6.01 6.66 5.02 7.32 4 8 C3.896875 7.05125 3.79375 6.1025 3.6875 5.125 C3.31460705 1.70892499 3.31460705 1.70892499 0 0 Z " fill="#0A3063" transform="translate(144,239)"/>
<path d="M0 0 C1.32 0.33 2.64 0.66 4 1 C3.34 1.66 2.68 2.32 2 3 C2.66 3.66 3.32 4.32 4 5 C0.7 5 -2.6 5 -6 5 C-6.33 4.34 -6.66 3.68 -7 3 C-3.535 2.505 -3.535 2.505 0 2 C0 1.34 0 0.68 0 0 Z " fill="#0C2C5B" transform="translate(134,232)"/>
<path d="M0 0 C3.68646141 1.45855647 5.16143971 3.30229045 7.25 6.625 C8.03117188 7.85089844 8.03117188 7.85089844 8.828125 9.1015625 C9.21484375 9.72804687 9.6015625 10.35453125 10 11 C9.67 11.66 9.34 12.32 9 13 C7.87064804 11.58680023 6.74669374 10.16928595 5.625 8.75 C4.99851563 7.96109375 4.37203125 7.1721875 3.7265625 6.359375 C2.21089263 4.28818811 1.05780366 2.32930503 0 0 Z " fill="#091728" transform="translate(146,193)"/>
<path d="M0 0 C2.62171298 2.4367455 4.59081645 5.12375397 6.625 8.0625 C7.23601562 8.94035156 7.84703125 9.81820313 8.4765625 10.72265625 C10 13 10 13 11 15 C6.38183821 12.92978954 4.02426712 10.47119888 1.8125 5.9375 C1.29623047 4.89916016 1.29623047 4.89916016 0.76953125 3.83984375 C0 2 0 2 0 0 Z " fill="#08172A" transform="translate(166,272)"/>
<path d="M0 0 C0.66 0.33 1.32 0.66 2 1 C1.09376275 2.61008152 0.17454201 4.21285925 -0.75 5.8125 C-1.26046875 6.70582031 -1.7709375 7.59914062 -2.296875 8.51953125 C-3.98579128 10.97930611 -5.52172836 12.37834834 -8 14 C-6.46162154 10.80375738 -4.71133468 7.78394426 -2.875 4.75 C-2.33617187 3.85796875 -1.79734375 2.9659375 -1.2421875 2.046875 C-0.62730469 1.03367188 -0.62730469 1.03367188 0 0 Z " fill="#0B192C" transform="translate(212,211)"/>
<path d="M0 0 C4.23287649 1.5117416 5.63125215 4.3322614 8 8 C8.99 8.66 9.98 9.32 11 10 C11 10.66 11 11.32 11 12 C7.3571729 10.52513858 5.59170887 8.55477485 3.25 5.4375 C2.63640625 4.63183594 2.0228125 3.82617188 1.390625 2.99609375 C0 1 0 1 0 0 Z " fill="#09162A" transform="translate(169,273)"/>
<path d="M0 0 C1.0625 1.8125 1.0625 1.8125 2 4 C1.67 4.99 1.34 5.98 1 7 C-3.62 7 -8.24 7 -13 7 C-13 6.67 -13 6.34 -13 6 C-12.14535156 5.95101563 -11.29070312 5.90203125 -10.41015625 5.8515625 C-9.30542969 5.77679688 -8.20070312 5.70203125 -7.0625 5.625 C-5.40927734 5.52058594 -5.40927734 5.52058594 -3.72265625 5.4140625 C-2.37494141 5.20910156 -2.37494141 5.20910156 -1 5 C-0.67 4.34 -0.34 3.68 0 3 C-0.99 2.67 -1.98 2.34 -3 2 C-2.01 2 -1.02 2 0 2 C0 1.34 0 0.68 0 0 Z " fill="#000312" transform="translate(213,262)"/>
<path d="M0 0 C6.52307692 0.61538462 6.52307692 0.61538462 8.9375 2.5625 C9.288125 3.036875 9.63875 3.51125 10 4 C7.36 4.33 4.72 4.66 2 5 C1.67 4.34 1.34 3.68 1 3 C1.66 2.67 2.32 2.34 3 2 C2.01 1.34 1.02 0.68 0 0 Z " fill="#020C1B" transform="translate(126,196)"/>
<path d="M0 0 C0.33 0 0.66 0 1 0 C1.49230769 7.38461538 1.49230769 7.38461538 -1 10.5 C-1.66 10.995 -2.32 11.49 -3 12 C-2.69106068 10.3743193 -2.3777305 8.74947252 -2.0625 7.125 C-1.88847656 6.22007812 -1.71445313 5.31515625 -1.53515625 4.3828125 C-1 2 -1 2 0 0 Z " fill="#021C41" transform="translate(181,222)"/>
<path d="M0 0 C0.33 0 0.66 0 1 0 C1.08159574 4.16138263 0.98248524 7.9472484 0 12 C-0.33 10.68 -0.66 9.36 -1 8 C-1.66 8 -2.32 8 -3 8 C-1.125 2.25 -1.125 2.25 0 0 Z " fill="#17448A" transform="translate(182,210)"/>
<path d="M0 0 C0 0.33 0 0.66 0 1 C-1.6396875 1.4021875 -1.6396875 1.4021875 -3.3125 1.8125 C-6.73166327 2.91358648 -7.77591981 3.42474926 -10 6 C-10.66 6 -11.32 6 -12 6 C-9.51338724 -0.92699268 -6.80769872 -0.10980159 0 0 Z " fill="#B1B1B1" transform="translate(531,212)"/>
<path d="M0 0 C3.48247874 1.16082625 3.88819244 1.90932476 5.75 4.9375 C6.19859375 5.64777344 6.6471875 6.35804688 7.109375 7.08984375 C7.40328125 7.72019531 7.6971875 8.35054687 8 9 C7.67 9.66 7.34 10.32 7 11 C5.82750647 9.54634731 4.66216184 8.08692581 3.5 6.625 C2.52546875 5.40683594 2.52546875 5.40683594 1.53125 4.1640625 C0 2 0 2 0 0 Z " fill="#0C1C31" transform="translate(152,188)"/>
<path d="M0 0 C2 0 2 0 3.625 1.5 C4.07875 1.995 4.5325 2.49 5 3 C5.33 2.34 5.66 1.68 6 1 C6.33 2.98 6.66 4.96 7 7 C4.20171644 6.61402985 3.1794116 6.19863427 1.25 4.0625 C0 2 0 2 0 0 Z " fill="#0A3368" transform="translate(163,260)"/>
<path d="M0 0 C0.66 0.33 1.32 0.66 2 1 C-0.31 3.31 -2.62 5.62 -5 8 C-5.66 7.34 -6.32 6.68 -7 6 C-4.69 4.02 -2.38 2.04 0 0 Z " fill="#081427" transform="translate(119,246)"/>
<path d="M0 0 C-2 2 -2 2 -3.9453125 2.1953125 C-5.96354167 2.13020833 -7.98177083 2.06510417 -10 2 C-9.67 1.34 -9.34 0.68 -9 0 C-5.65506316 -0.99444068 -3.31044803 -1.10348268 0 0 Z " fill="#03193E" transform="translate(194,248)"/>
<path d="M0 0 C2.94982021 1.14186589 4.88437775 2.67281553 7 5 C6.67 5.66 6.34 6.32 6 7 C5.236875 6.38125 4.47375 5.7625 3.6875 5.125 C1.00374191 2.94402948 1.00374191 2.94402948 -2 1 C-1.34 0.67 -0.68 0.34 0 0 Z " fill="#010714" transform="translate(142,197)"/>
<path d="M0 0 C3.80666984 1.44390925 5.26602582 3.34952803 7 7 C6.67 7.66 6.34 8.32 6 9 C4.99712471 7.68969568 3.99777175 6.37669473 3 5.0625 C2.443125 4.33160156 1.88625 3.60070312 1.3125 2.84765625 C0 1 0 1 0 0 Z " fill="#071930" transform="translate(150,192)"/>
<path d="M0 0 C2.50298434 2.93828597 3.46930939 5.17902761 4 9 C3.01 8.67 2.02 8.34 1 8 C0.67 5.36 0.34 2.72 0 0 Z " fill="#0E1F39" transform="translate(143,296)"/>
<path d="M0 0 C5.57142857 5.14285714 5.57142857 5.14285714 6 9 C0.42857143 3.85714286 0.42857143 3.85714286 0 0 Z " fill="#0E1D37" transform="translate(162,287)"/>
<path d="M0 0 C0.66 0 1.32 0 2 0 C0.68775452 3.93673644 -0.91910327 6.22719294 -4 9 C-3.35494404 5.51669784 -2.01782732 2.90567134 0 0 Z " fill="#0B1D35" transform="translate(220,213)"/>
</svg>
