<?xml version="1.0" standalone="no"?>
<!DOCTYPE svg PUBLIC "-//W3C//DTD SVG 20010904//EN"
 "http://www.w3.org/TR/2001/REC-SVG-20010904/DTD/svg10.dtd">
<svg version="1.0" xmlns="http://www.w3.org/2000/svg"
 width="450.000000pt" height="450.000000pt" viewBox="0 0 450.000000 450.000000"
 preserveAspectRatio="xMidYMid meet">
<metadata>
Created by potrace 1.10, written by Peter Selinger 2001-2011
</metadata>
<g transform="translate(0.000000,450.000000) scale(0.100000,-0.100000)"
fill="#5864bb" stroke="none">
<path d="M2390 3435 c-8 -2 -49 -9 -90 -15 -459 -74 -814 -424 -923 -909 -32
-142 -31 -405 1 -549 26 -117 83 -264 136 -349 l35 -58 -30 -3 c-79 -9 -201
40 -295 118 -84 69 -141 143 -247 323 l-96 160 59 28 c102 48 145 130 139 262
-4 65 -9 82 -35 119 -70 101 -131 118 -411 118 l-213 0 0 -410 0 -410 50 0 50
0 0 140 0 140 124 0 124 0 72 -117 c141 -233 280 -378 435 -452 107 -52 168
-65 274 -58 171 11 312 79 636 311 126 91 270 186 320 213 66 35 84 49 68 51
-52 8 -174 -65 -547 -325 l-109 -76 -19 24 c-21 27 -98 182 -98 198 0 6 -6 11
-13 11 -7 0 -45 15 -84 34 -138 66 -203 155 -203 276 0 83 21 146 65 198 41
47 115 96 176 117 41 14 47 21 74 82 96 221 282 385 499 442 110 29 291 29
400 1 147 -39 276 -111 389 -218 l57 -55 123 122 122 122 -78 74 c-180 172
-403 279 -652 315 -63 9 -248 12 -285 5z m-1500 -877 c58 -30 80 -63 86 -129
8 -73 -24 -133 -86 -166 -40 -21 -55 -23 -207 -23 l-163 0 0 170 0 170 163 0
c149 0 166 -2 207 -22z"/>
<path d="M3962 2674 c-33 -23 -27 -73 11 -94 24 -13 30 -13 55 0 37 21 43 71
10 94 -12 9 -29 16 -38 16 -9 0 -26 -7 -38 -16z"/>
<path d="M1793 2480 c-149 -39 -223 -118 -223 -239 0 -74 9 -99 56 -151 163
-180 614 -145 705 54 32 71 22 165 -25 229 -78 106 -322 157 -513 107z m349
-103 c80 -39 108 -75 108 -139 0 -63 -22 -95 -88 -131 -131 -71 -362 -54 -459
36 -55 50 -53 136 4 192 56 55 134 76 268 72 96 -3 117 -6 167 -30z"/>
<path d="M2460 2445 l0 -45 199 -2 200 -3 -102 -118 c-56 -64 -119 -129 -140
-144 -20 -14 -35 -28 -33 -30 2 -2 37 5 77 16 41 11 86 23 102 26 15 3 27 11
27 18 1 6 55 75 121 152 66 77 125 148 130 158 9 16 -7 17 -286 17 l-295 0 0
-45z"/>
<path d="M3225 2288 c-138 -207 -190 -270 -245 -298 -56 -29 -146 -41 -270
-38 l-114 3 69 71 70 72 113 27 c62 15 111 29 108 32 -2 2 -61 -10 -131 -27
-134 -33 -285 -87 -285 -102 0 -5 -30 -44 -67 -86 l-67 -77 234 -3 c255 -3
303 3 396 47 56 26 65 28 165 23 143 -6 193 10 272 90 32 32 62 56 67 53 5 -3
35 -52 67 -110 l58 -105 53 0 c28 0 52 3 52 8 0 4 -36 68 -79 142 -43 74 -78
136 -76 138 1 1 33 11 69 22 69 19 162 67 152 77 -3 3 -11 1 -18 -4 -23 -18
-110 -43 -172 -49 l-61 -5 -84 145 c-81 141 -85 146 -116 146 -31 0 -38 -8
-160 -192z m219 -38 l55 -95 -40 -37 c-64 -59 -113 -78 -202 -78 -42 0 -77 3
-77 7 0 13 195 302 202 300 5 -1 32 -45 62 -97z"/>
<path d="M3950 2169 l0 -310 48 3 47 3 3 308 2 307 -50 0 -50 0 0 -311z"/>
<path d="M3033 2183 c4 -3 10 -3 14 0 3 4 0 7 -7 7 -7 0 -10 -3 -7 -7z"/>
<path d="M2985 2170 c-13 -6 -15 -9 -5 -9 8 0 22 4 30 9 18 12 2 12 -25 0z"/>
<path d="M3114 1659 c-82 -84 -240 -178 -369 -219 -99 -32 -293 -39 -401 -15
-97 21 -241 87 -312 144 l-52 42 -78 -45 c-43 -25 -121 -60 -174 -77 -84 -28
-96 -34 -88 -49 25 -46 228 -203 329 -254 69 -35 205 -81 301 -102 128 -28
353 -26 488 4 228 51 401 143 565 301 l78 76 -124 117 -124 117 -39 -40z"/>
</g>
</svg>
